<svg xmlns="http://www.w3.org/2000/svg" viewBox="0 0 800 460" font-family="Pretendard, sans-serif">
  <text x="400" y="30" text-anchor="middle" font-size="16" font-weight="900">Fig 4. Recommendation Matrix — Tier × Threat (region 매핑은 별도 룩업)</text>
  <text x="400" y="52" text-anchor="middle" font-size="11" fill="#52525b">각 셀 = (Tier, Threat) 조합의 최우선 행동. 실제 출력엔 priority/responsible/agency 메타데이터 포함</text>
  <rect x="130" y="100" width="110" height="50" fill="#dcfce7" stroke="#a1a1aa"/><text x="185" y="129" font-size="10" text-anchor="middle">정기 조사</text><rect x="240" y="100" width="110" height="50" fill="#ecfccb" stroke="#a1a1aa"/><text x="295" y="129" font-size="10" text-anchor="middle">사냥 통계 추적</text><rect x="350" y="100" width="110" height="50" fill="#fef9c3" stroke="#a1a1aa"/><text x="405" y="129" font-size="10" text-anchor="middle">단속 강화</text><rect x="460" y="100" width="110" height="50" fill="#fed7aa" stroke="#a1a1aa"/><text x="515" y="129" font-size="10" text-anchor="middle">법적 보호 격상</text><rect x="570" y="100" width="110" height="50" fill="#fecaca" stroke="#a1a1aa"/><text x="625" y="129" font-size="10" text-anchor="middle">전면 사냥 금지</text><rect x="130" y="150" width="110" height="50" fill="#dcfce7" stroke="#a1a1aa"/><text x="185" y="179" font-size="10" text-anchor="middle">기준선 데이터</text><rect x="240" y="150" width="110" height="50" fill="#ecfccb" stroke="#a1a1aa"/><text x="295" y="179" font-size="10" text-anchor="middle">혼획 보고제</text><rect x="350" y="150" width="110" height="50" fill="#fef9c3" stroke="#a1a1aa"/><text x="405" y="179" font-size="10" text-anchor="middle">자망 제한</text><rect x="460" y="150" width="110" height="50" fill="#fed7aa" stroke="#a1a1aa"/><text x="515" y="179" font-size="10" text-anchor="middle">조업 금지구역</text><rect x="570" y="150" width="110" height="50" fill="#fecaca" stroke="#a1a1aa"/><text x="625" y="179" font-size="10" text-anchor="middle">어업 봉쇄</text><rect x="130" y="200" width="110" height="50" fill="#dcfce7" stroke="#a1a1aa"/><text x="185" y="229" font-size="10" text-anchor="middle">토지 모니터링</text><rect x="240" y="200" width="110" height="50" fill="#ecfccb" stroke="#a1a1aa"/><text x="295" y="229" font-size="10" text-anchor="middle">규제 검토</text><rect x="350" y="200" width="110" height="50" fill="#fef9c3" stroke="#a1a1aa"/><text x="405" y="229" font-size="10" text-anchor="middle">보호구역 확장</text><rect x="460" y="200" width="110" height="50" fill="#fed7aa" stroke="#a1a1aa"/><text x="515" y="229" font-size="10" text-anchor="middle">긴급 보전</text><rect x="570" y="200" width="110" height="50" fill="#fecaca" stroke="#a1a1aa"/><text x="625" y="229" font-size="10" text-anchor="middle">서식지 봉쇄</text><rect x="130" y="250" width="110" height="50" fill="#dcfce7" stroke="#a1a1aa"/><text x="185" y="279" font-size="10" text-anchor="middle">수질 측정</text><rect x="240" y="250" width="110" height="50" fill="#ecfccb" stroke="#a1a1aa"/><text x="295" y="279" font-size="10" text-anchor="middle">오염원 추적</text><rect x="350" y="250" width="110" height="50" fill="#fef9c3" stroke="#a1a1aa"/><text x="405" y="279" font-size="10" text-anchor="middle">정화 명령</text><rect x="460" y="250" width="110" height="50" fill="#fed7aa" stroke="#a1a1aa"/><text x="515" y="279" font-size="10" text-anchor="middle">긴급 정화</text><rect x="570" y="250" width="110" height="50" fill="#fecaca" stroke="#a1a1aa"/><text x="625" y="279" font-size="10" text-anchor="middle">오염원 차단</text><rect x="130" y="300" width="110" height="50" fill="#dcfce7" stroke="#a1a1aa"/><text x="185" y="329" font-size="10" text-anchor="middle">기온 추적</text><rect x="240" y="300" width="110" height="50" fill="#ecfccb" stroke="#a1a1aa"/><text x="295" y="329" font-size="10" text-anchor="middle">예측 모델</text><rect x="350" y="300" width="110" height="50" fill="#fef9c3" stroke="#a1a1aa"/><text x="405" y="329" font-size="10" text-anchor="middle">적응 계획</text><rect x="460" y="300" width="110" height="50" fill="#fed7aa" stroke="#a1a1aa"/><text x="515" y="329" font-size="10" text-anchor="middle">이주 검토</text><rect x="570" y="300" width="110" height="50" fill="#fecaca" stroke="#a1a1aa"/><text x="625" y="329" font-size="10" text-anchor="middle">ex-situ 이전</text><rect x="130" y="350" width="110" height="50" fill="#dcfce7" stroke="#a1a1aa"/><text x="185" y="379" font-size="10" text-anchor="middle">외래종 등록</text><rect x="240" y="350" width="110" height="50" fill="#ecfccb" stroke="#a1a1aa"/><text x="295" y="379" font-size="10" text-anchor="middle">조기 경보</text><rect x="350" y="350" width="110" height="50" fill="#fef9c3" stroke="#a1a1aa"/><text x="405" y="379" font-size="10" text-anchor="middle">제거 시작</text><rect x="460" y="350" width="110" height="50" fill="#fed7aa" stroke="#a1a1aa"/><text x="515" y="379" font-size="10" text-anchor="middle">전면 제거</text><rect x="570" y="350" width="110" height="50" fill="#fecaca" stroke="#a1a1aa"/><text x="625" y="379" font-size="10" text-anchor="middle">유전자 보존</text><rect x="130" y="400" width="110" height="50" fill="#dcfce7" stroke="#a1a1aa"/><text x="185" y="429" font-size="10" text-anchor="middle">질병 감시</text><rect x="240" y="400" width="110" height="50" fill="#ecfccb" stroke="#a1a1aa"/><text x="295" y="429" font-size="10" text-anchor="middle">백신 검토</text><rect x="350" y="400" width="110" height="50" fill="#fef9c3" stroke="#a1a1aa"/><text x="405" y="429" font-size="10" text-anchor="middle">치료 프로그램</text><rect x="460" y="400" width="110" height="50" fill="#fed7aa" stroke="#a1a1aa"/><text x="515" y="429" font-size="10" text-anchor="middle">긴급 격리</text><rect x="570" y="400" width="110" height="50" fill="#fecaca" stroke="#a1a1aa"/><text x="625" y="429" font-size="10" text-anchor="middle">포획 + 치료</text><text x="125" y="129" font-size="11" font-weight="700" text-anchor="end">hunting</text><text x="125" y="179" font-size="11" font-weight="700" text-anchor="end">bycatch</text><text x="125" y="229" font-size="11" font-weight="700" text-anchor="end">habitat_loss</text><text x="125" y="279" font-size="11" font-weight="700" text-anchor="end">pollution</text><text x="125" y="329" font-size="11" font-weight="700" text-anchor="end">climate</text><text x="125" y="379" font-size="11" font-weight="700" text-anchor="end">invasive</text><text x="125" y="429" font-size="11" font-weight="700" text-anchor="end">disease</text><text x="185" y="92" font-size="13" font-weight="700" text-anchor="middle">T0</text><text x="295" y="92" font-size="13" font-weight="700" text-anchor="middle">T1</text><text x="405" y="92" font-size="13" font-weight="700" text-anchor="middle">T2</text><text x="515" y="92" font-size="13" font-weight="700" text-anchor="middle">T3</text><text x="625" y="92" font-size="13" font-weight="700" text-anchor="middle">T4</text>
  <text x="60" y="450" font-size="11" fill="#52525b">출처: engine/recommendation.ts — IUCN Threat Classification + 본 발명 매트릭스</text>
</svg>